<?xml version="1.0" encoding="UTF-8" standalone="no"?>
<!DOCTYPE svg PUBLIC "-//W3C//DTD SVG 1.1//EN"
 "http://www.w3.org/Graphics/SVG/1.1/DTD/svg11.dtd">
<!-- Generated by graphviz version 11.0.0 (20240428.1522)
 -->
<!-- Title: Graphical Class Hierarchy Pages: 1 -->
<svg width="193pt" height="64pt"
 viewBox="0.00 0.00 193.00 64.25" xmlns="http://www.w3.org/2000/svg" xmlns:xlink="http://www.w3.org/1999/xlink">
<g id="graph0" class="graph" transform="scale(1 1) rotate(0) translate(4 60.25)">
<title>Graphical Class Hierarchy</title>
<!-- Node0 -->
<g id="node1" class="node">
<title>Node0</title>
<g id="a_node1"><a xlink:href="d5/d2d/class_vivid_1_1_shape.html" target="_top" xlink:title=" ">
<polygon fill="white" stroke="#666666" points="71.5,-37.25 0,-37.25 0,-18 71.5,-18 71.5,-37.25"/>
<text text-anchor="middle" x="35.75" y="-23.75" font-family="Helvetica,sans-Serif" font-size="10.00">Vivid::Shape</text>
</a>
</g>
</g>
<!-- Node1 -->
<g id="node2" class="node">
<title>Node1</title>
<g id="a_node2"><a xlink:href="de/df1/class_vivid_1_1_quad3d.html" target="_top" xlink:title=" ">
<polygon fill="white" stroke="#666666" points="185,-56.25 107.5,-56.25 107.5,-37 185,-37 185,-56.25"/>
<text text-anchor="middle" x="146.25" y="-42.75" font-family="Helvetica,sans-Serif" font-size="10.00">Vivid::Quad3d</text>
</a>
</g>
</g>
<!-- Node0&#45;&gt;Node1 -->
<g id="edge1" class="edge">
<title>Node0&#45;&gt;Node1</title>
<path fill="none" stroke="#63b8ff" d="M83.11,-35.74C91.15,-37.15 99.42,-38.6 107.21,-39.96"/>
<polygon fill="#63b8ff" stroke="#63b8ff" points="83.92,-32.33 73.47,-34.05 82.71,-39.23 83.92,-32.33"/>
</g>
<!-- Node2 -->
<g id="node3" class="node">
<title>Node2</title>
<g id="a_node3"><a xlink:href="db/d41/class_vivid_1_1_sphere.html" target="_top" xlink:title=" ">
<polygon fill="white" stroke="#666666" points="183.5,-19.25 109,-19.25 109,0 183.5,0 183.5,-19.25"/>
<text text-anchor="middle" x="146.25" y="-5.75" font-family="Helvetica,sans-Serif" font-size="10.00">Vivid::Sphere</text>
</a>
</g>
</g>
<!-- Node0&#45;&gt;Node2 -->
<g id="edge2" class="edge">
<title>Node0&#45;&gt;Node2</title>
<path fill="none" stroke="#63b8ff" d="M83.32,-19.9C91.81,-18.49 100.56,-17.04 108.71,-15.69"/>
<polygon fill="#63b8ff" stroke="#63b8ff" points="82.76,-16.44 73.47,-21.53 83.91,-23.35 82.76,-16.44"/>
</g>
</g>
</svg>
