<?xml version="1.0" encoding="UTF-8" standalone="no"?>
<!DOCTYPE svg PUBLIC "-//W3C//DTD SVG 1.1//EN"
 "http://www.w3.org/Graphics/SVG/1.1/DTD/svg11.dtd">
<!-- Generated by graphviz version 11.0.0 (20240428.1522)
 -->
<!-- Title: Vivid::Component Pages: 1 -->
<svg width="300pt" height="138pt"
 viewBox="0.00 0.00 299.50 138.25" xmlns="http://www.w3.org/2000/svg" xmlns:xlink="http://www.w3.org/1999/xlink">
<g id="graph0" class="graph" transform="scale(1 1) rotate(0) translate(4 134.25)">
<title>Vivid::Component</title>
<!-- Node1 -->
<g id="node1" class="node">
<title>Node1</title>
<g id="a_node1"><a xlink:title="Contains a Component.">
<polygon fill="#999999" stroke="#666666" points="94,-74.25 0,-74.25 0,-55 94,-55 94,-74.25"/>
<text text-anchor="middle" x="47" y="-60.75" font-family="Helvetica,sans-Serif" font-size="10.00">Vivid::Component</text>
</a>
</g>
</g>
<!-- Node2 -->
<g id="node2" class="node">
<title>Node2</title>
<g id="a_node2"><a xlink:href="../../db/d68/class_vivid_1_1_directional_light_component.html" target="_top" xlink:title=" ">
<polygon fill="white" stroke="#bfbfbf" points="291.5,-130.25 130,-130.25 130,-111 291.5,-111 291.5,-130.25"/>
<text text-anchor="middle" x="210.75" y="-116.75" font-family="Helvetica,sans-Serif" font-size="10.00">Vivid::DirectionalLightComponent</text>
</a>
</g>
</g>
<!-- Node1&#45;&gt;Node2 -->
<g id="edge1" class="edge">
<title>Node1&#45;&gt;Node2</title>
<path fill="none" stroke="#63b8ff" d="M76.72,-79.76C92.19,-87.44 111.78,-96.42 130,-102.62 138.87,-105.64 148.47,-108.3 157.82,-110.58"/>
<polygon fill="#63b8ff" stroke="#63b8ff" points="78.6,-76.79 68.1,-75.39 75.44,-83.03 78.6,-76.79"/>
</g>
<!-- Node3 -->
<g id="node3" class="node">
<title>Node3</title>
<g id="a_node3"><a xlink:href="../../d2/d9d/class_vivid_1_1_model_component.html" target="_top" xlink:title="Contains a ModelComponent.">
<polygon fill="white" stroke="#666666" points="270.88,-93.25 150.62,-93.25 150.62,-74 270.88,-74 270.88,-93.25"/>
<text text-anchor="middle" x="210.75" y="-79.75" font-family="Helvetica,sans-Serif" font-size="10.00">Vivid::ModelComponent</text>
</a>
</g>
</g>
<!-- Node1&#45;&gt;Node3 -->
<g id="edge2" class="edge">
<title>Node1&#45;&gt;Node3</title>
<path fill="none" stroke="#63b8ff" d="M105.71,-71.4C120.22,-73.11 135.81,-74.94 150.39,-76.65"/>
<polygon fill="#63b8ff" stroke="#63b8ff" points="106.19,-67.94 95.85,-70.25 105.38,-74.89 106.19,-67.94"/>
</g>
<!-- Node4 -->
<g id="node4" class="node">
<title>Node4</title>
<g id="a_node4"><a xlink:href="../../d7/d77/class_vivid_1_1_point_light_component.html" target="_top" xlink:title="Contains a PointLightComponent.">
<polygon fill="white" stroke="#666666" points="279.5,-56.25 142,-56.25 142,-37 279.5,-37 279.5,-56.25"/>
<text text-anchor="middle" x="210.75" y="-42.75" font-family="Helvetica,sans-Serif" font-size="10.00">Vivid::PointLightComponent</text>
</a>
</g>
</g>
<!-- Node1&#45;&gt;Node4 -->
<g id="edge3" class="edge">
<title>Node1&#45;&gt;Node4</title>
<path fill="none" stroke="#63b8ff" d="M105.73,-58.2C117.38,-56.9 129.73,-55.53 141.69,-54.2"/>
<polygon fill="#63b8ff" stroke="#63b8ff" points="105.41,-54.71 95.86,-59.3 106.18,-61.67 105.41,-54.71"/>
</g>
<!-- Node5 -->
<g id="node5" class="node">
<title>Node5</title>
<g id="a_node5"><a xlink:href="../../d3/d74/class_vivid_1_1_transform_component.html" target="_top" xlink:title="Contains the Transform Component.">
<polygon fill="white" stroke="#666666" points="279.88,-19.25 141.62,-19.25 141.62,0 279.88,0 279.88,-19.25"/>
<text text-anchor="middle" x="210.75" y="-5.75" font-family="Helvetica,sans-Serif" font-size="10.00">Vivid::TransformComponent</text>
</a>
</g>
</g>
<!-- Node1&#45;&gt;Node5 -->
<g id="edge4" class="edge">
<title>Node1&#45;&gt;Node5</title>
<path fill="none" stroke="#63b8ff" d="M77.38,-49.62C92.76,-42.22 112.07,-33.63 130,-27.62 138.88,-24.65 148.49,-22.02 157.85,-19.74"/>
<polygon fill="#63b8ff" stroke="#63b8ff" points="76.23,-46.29 68.79,-53.84 79.31,-52.58 76.23,-46.29"/>
</g>
</g>
</svg>
