<?xml version="1.0" encoding="UTF-8" standalone="no"?>
<!DOCTYPE svg PUBLIC "-//W3C//DTD SVG 1.1//EN"
 "http://www.w3.org/Graphics/SVG/1.1/DTD/svg11.dtd">
<!-- Generated by graphviz version 11.0.0 (20240428.1522)
 -->
<!-- Title: MovableCamera Pages: 1 -->
<svg width="176pt" height="94pt"
 viewBox="0.00 0.00 175.88 93.75" xmlns="http://www.w3.org/2000/svg" xmlns:xlink="http://www.w3.org/1999/xlink">
<g id="graph0" class="graph" transform="scale(1 1) rotate(0) translate(4 89.75)">
<title>MovableCamera</title>
<!-- Node1 -->
<g id="node1" class="node">
<title>Node1</title>
<g id="a_node1"><a xlink:title="A class for the MovableCamera&#39;s.">
<polygon fill="#999999" stroke="#666666" points="114.88,-19.25 27.62,-19.25 27.62,0 114.88,0 114.88,-19.25"/>
<text text-anchor="middle" x="71.25" y="-5.75" font-family="Helvetica,sans-Serif" font-size="10.00">MovableCamera</text>
</a>
</g>
</g>
<!-- Node2 -->
<g id="node2" class="node">
<title>Node2</title>
<g id="a_node2"><a xlink:href="../../da/dbb/class_camera.html" target="_top" xlink:title="A class that represents the camera.">
<polygon fill="white" stroke="#666666" points="50.5,-85.75 0,-85.75 0,-66.5 50.5,-66.5 50.5,-85.75"/>
<text text-anchor="middle" x="25.25" y="-72.25" font-family="Helvetica,sans-Serif" font-size="10.00">Camera</text>
</a>
</g>
</g>
<!-- Node2&#45;&gt;Node1 -->
<g id="edge1" class="edge">
<title>Node2&#45;&gt;Node1</title>
<path fill="none" stroke="#63b8ff" d="M38.26,-56.88C46.98,-44.66 58.06,-29.11 64.91,-19.52"/>
<polygon fill="#63b8ff" stroke="#63b8ff" points="35.48,-54.75 32.52,-64.92 41.18,-58.81 35.48,-54.75"/>
</g>
<!-- Node3 -->
<g id="node3" class="node">
<title>Node3</title>
<g id="a_node3"><a xlink:href="../../d4/df7/struct_vivid_1_1_maths_1_1_vec3.html" target="_top" xlink:title="Contains a 3D vector.">
<polygon fill="white" stroke="#666666" points="167.88,-85.75 68.62,-85.75 68.62,-66.5 167.88,-66.5 167.88,-85.75"/>
<text text-anchor="middle" x="118.25" y="-72.25" font-family="Helvetica,sans-Serif" font-size="10.00">Vivid::Maths::Vec3</text>
</a>
</g>
</g>
<!-- Node3&#45;&gt;Node1 -->
<g id="edge2" class="edge">
<title>Node3&#45;&gt;Node1</title>
<path fill="none" stroke="#9a32cd" stroke-dasharray="5,2" d="M104.95,-56.88C96.05,-44.66 84.72,-29.11 77.73,-19.52"/>
<polygon fill="#9a32cd" stroke="#9a32cd" points="102.11,-58.91 110.82,-64.93 107.76,-54.79 102.11,-58.91"/>
<text text-anchor="middle" x="123.12" y="-39" font-family="Helvetica,sans-Serif" font-size="10.00"> m_Position</text>
</g>
</g>
</svg>
