<?xml version="1.0" encoding="UTF-8" standalone="no"?>
<!DOCTYPE svg PUBLIC "-//W3C//DTD SVG 1.1//EN"
 "http://www.w3.org/Graphics/SVG/1.1/DTD/svg11.dtd">
<!-- Generated by graphviz version 11.0.0 (20240428.1522)
 -->
<!-- Title: Graphical Class Hierarchy Pages: 1 -->
<svg width="294pt" height="64pt"
 viewBox="0.00 0.00 293.75 64.25" xmlns="http://www.w3.org/2000/svg" xmlns:xlink="http://www.w3.org/1999/xlink">
<g id="graph0" class="graph" transform="scale(1 1) rotate(0) translate(4 60.25)">
<title>Graphical Class Hierarchy</title>
<!-- Node0 -->
<g id="node1" class="node">
<title>Node0</title>
<g id="a_node1"><a xlink:href="da/dbb/class_camera.html" target="_top" xlink:title="A class that represents the camera.">
<polygon fill="white" stroke="#666666" points="50.5,-37.25 0,-37.25 0,-18 50.5,-18 50.5,-37.25"/>
<text text-anchor="middle" x="25.25" y="-23.75" font-family="Helvetica,sans-Serif" font-size="10.00">Camera</text>
</a>
</g>
</g>
<!-- Node1 -->
<g id="node2" class="node">
<title>Node1</title>
<g id="a_node2"><a xlink:href="d7/d29/class_movable_camera.html" target="_top" xlink:title="A class for the MovableCamera&#39;s.">
<polygon fill="white" stroke="#666666" points="173.75,-37.25 86.5,-37.25 86.5,-18 173.75,-18 173.75,-37.25"/>
<text text-anchor="middle" x="130.12" y="-23.75" font-family="Helvetica,sans-Serif" font-size="10.00">MovableCamera</text>
</a>
</g>
</g>
<!-- Node0&#45;&gt;Node1 -->
<g id="edge1" class="edge">
<title>Node0&#45;&gt;Node1</title>
<path fill="none" stroke="#63b8ff" d="M62.16,-27.62C69.92,-27.62 78.2,-27.62 86.19,-27.62"/>
<polygon fill="#63b8ff" stroke="#63b8ff" points="62.4,-24.13 52.4,-27.63 62.4,-31.13 62.4,-24.13"/>
</g>
<!-- Node2 -->
<g id="node3" class="node">
<title>Node2</title>
<g id="a_node3"><a xlink:href="d2/d4c/class_editor_camera.html" target="_top" xlink:title="A class for the EditorCamera.">
<polygon fill="white" stroke="#666666" points="285.75,-56.25 209.75,-56.25 209.75,-37 285.75,-37 285.75,-56.25"/>
<text text-anchor="middle" x="247.75" y="-42.75" font-family="Helvetica,sans-Serif" font-size="10.00">EditorCamera</text>
</a>
</g>
</g>
<!-- Node1&#45;&gt;Node2 -->
<g id="edge2" class="edge">
<title>Node1&#45;&gt;Node2</title>
<path fill="none" stroke="#63b8ff" d="M185.48,-36.56C193.56,-37.88 201.73,-39.23 209.36,-40.48"/>
<polygon fill="#63b8ff" stroke="#63b8ff" points="186.11,-33.11 175.67,-34.95 184.97,-40.02 186.11,-33.11"/>
</g>
<!-- Node3 -->
<g id="node4" class="node">
<title>Node3</title>
<g id="a_node4"><a xlink:href="da/de2/class_ortho_camera.html" target="_top" xlink:title="A class for the OrthoCamera&#39;s.">
<polygon fill="white" stroke="#666666" points="285,-19.25 210.5,-19.25 210.5,0 285,0 285,-19.25"/>
<text text-anchor="middle" x="247.75" y="-5.75" font-family="Helvetica,sans-Serif" font-size="10.00">OrthoCamera</text>
</a>
</g>
</g>
<!-- Node1&#45;&gt;Node3 -->
<g id="edge3" class="edge">
<title>Node1&#45;&gt;Node3</title>
<path fill="none" stroke="#63b8ff" d="M185.45,-19.17C193.8,-17.87 202.26,-16.55 210.11,-15.33"/>
<polygon fill="#63b8ff" stroke="#63b8ff" points="185.02,-15.69 175.68,-20.69 186.09,-22.61 185.02,-15.69"/>
</g>
</g>
</svg>
