<?xml version="1.0" encoding="UTF-8" standalone="no"?>
<!DOCTYPE svg PUBLIC "-//W3C//DTD SVG 1.1//EN"
 "http://www.w3.org/Graphics/SVG/1.1/DTD/svg11.dtd">
<!-- Generated by graphviz version 11.0.0 (20240428.1522)
 -->
<!-- Title: Vivid::Shape Pages: 1 -->
<svg width="178pt" height="83pt"
 viewBox="0.00 0.00 178.00 82.50" xmlns="http://www.w3.org/2000/svg" xmlns:xlink="http://www.w3.org/1999/xlink">
<g id="graph0" class="graph" transform="scale(1 1) rotate(0) translate(4 78.5)">
<title>Vivid::Shape</title>
<!-- Node1 -->
<g id="node1" class="node">
<title>Node1</title>
<g id="a_node1"><a xlink:title=" ">
<polygon fill="#999999" stroke="#666666" points="121.5,-74.5 50,-74.5 50,-55.25 121.5,-55.25 121.5,-74.5"/>
<text text-anchor="middle" x="85.75" y="-61" font-family="Helvetica,sans-Serif" font-size="10.00">Vivid::Shape</text>
</a>
</g>
</g>
<!-- Node2 -->
<g id="node2" class="node">
<title>Node2</title>
<g id="a_node2"><a xlink:href="../../de/df1/class_vivid_1_1_quad3d.html" target="_top" xlink:title=" ">
<polygon fill="white" stroke="#bfbfbf" points="77.5,-19.25 0,-19.25 0,0 77.5,0 77.5,-19.25"/>
<text text-anchor="middle" x="38.75" y="-5.75" font-family="Helvetica,sans-Serif" font-size="10.00">Vivid::Quad3d</text>
</a>
</g>
</g>
<!-- Node1&#45;&gt;Node2 -->
<g id="edge1" class="edge">
<title>Node1&#45;&gt;Node2</title>
<path fill="none" stroke="#63b8ff" d="M70.42,-46.51C62.5,-37.53 53.15,-26.95 46.68,-19.61"/>
<polygon fill="#63b8ff" stroke="#63b8ff" points="67.75,-48.77 76.99,-53.95 72.99,-44.13 67.75,-48.77"/>
</g>
<!-- Node3 -->
<g id="node3" class="node">
<title>Node3</title>
<g id="a_node3"><a xlink:href="../../db/d41/class_vivid_1_1_sphere.html" target="_top" xlink:title=" ">
<polygon fill="white" stroke="#bfbfbf" points="170,-19.25 95.5,-19.25 95.5,0 170,0 170,-19.25"/>
<text text-anchor="middle" x="132.75" y="-5.75" font-family="Helvetica,sans-Serif" font-size="10.00">Vivid::Sphere</text>
</a>
</g>
</g>
<!-- Node1&#45;&gt;Node3 -->
<g id="edge2" class="edge">
<title>Node1&#45;&gt;Node3</title>
<path fill="none" stroke="#63b8ff" d="M101.08,-46.51C109,-37.53 118.35,-26.95 124.82,-19.61"/>
<polygon fill="#63b8ff" stroke="#63b8ff" points="98.51,-44.13 94.51,-53.95 103.75,-48.77 98.51,-44.13"/>
</g>
</g>
</svg>
