<?xml version="1.0" encoding="UTF-8" standalone="no"?>
<!DOCTYPE svg PUBLIC "-//W3C//DTD SVG 1.1//EN"
 "http://www.w3.org/Graphics/SVG/1.1/DTD/svg11.dtd">
<!-- Generated by graphviz version 11.0.0 (20240428.1522)
 -->
<!-- Title: OrthoCamera Pages: 1 -->
<svg width="95pt" height="138pt"
 viewBox="0.00 0.00 95.25 137.75" xmlns="http://www.w3.org/2000/svg" xmlns:xlink="http://www.w3.org/1999/xlink">
<g id="graph0" class="graph" transform="scale(1 1) rotate(0) translate(4 133.75)">
<title>OrthoCamera</title>
<!-- Node1 -->
<g id="node1" class="node">
<title>Node1</title>
<g id="a_node1"><a xlink:title="A class for the OrthoCamera&#39;s.">
<polygon fill="#999999" stroke="#666666" points="80.88,-19.25 6.38,-19.25 6.38,0 80.88,0 80.88,-19.25"/>
<text text-anchor="middle" x="43.62" y="-5.75" font-family="Helvetica,sans-Serif" font-size="10.00">OrthoCamera</text>
</a>
</g>
</g>
<!-- Node2 -->
<g id="node2" class="node">
<title>Node2</title>
<g id="a_node2"><a xlink:href="../../d7/d29/class_movable_camera.html" target="_top" xlink:title="A class for the MovableCamera&#39;s.">
<polygon fill="white" stroke="#666666" points="87.25,-74.5 0,-74.5 0,-55.25 87.25,-55.25 87.25,-74.5"/>
<text text-anchor="middle" x="43.62" y="-61" font-family="Helvetica,sans-Serif" font-size="10.00">MovableCamera</text>
</a>
</g>
</g>
<!-- Node2&#45;&gt;Node1 -->
<g id="edge1" class="edge">
<title>Node2&#45;&gt;Node1</title>
<path fill="none" stroke="#63b8ff" d="M43.62,-43.63C43.62,-35.34 43.62,-26.17 43.62,-19.61"/>
<polygon fill="#63b8ff" stroke="#63b8ff" points="40.13,-43.57 43.63,-53.57 47.13,-43.57 40.13,-43.57"/>
</g>
<!-- Node3 -->
<g id="node3" class="node">
<title>Node3</title>
<g id="a_node3"><a xlink:href="../../da/dbb/class_camera.html" target="_top" xlink:title="A class that represents the camera.">
<polygon fill="white" stroke="#666666" points="68.88,-129.75 18.38,-129.75 18.38,-110.5 68.88,-110.5 68.88,-129.75"/>
<text text-anchor="middle" x="43.62" y="-116.25" font-family="Helvetica,sans-Serif" font-size="10.00">Camera</text>
</a>
</g>
</g>
<!-- Node3&#45;&gt;Node2 -->
<g id="edge2" class="edge">
<title>Node3&#45;&gt;Node2</title>
<path fill="none" stroke="#63b8ff" d="M43.62,-98.88C43.62,-90.59 43.62,-81.42 43.62,-74.86"/>
<polygon fill="#63b8ff" stroke="#63b8ff" points="40.13,-98.82 43.63,-108.82 47.13,-98.82 40.13,-98.82"/>
</g>
</g>
</svg>
