<?xml version="1.0" encoding="UTF-8" standalone="no"?>
<!DOCTYPE svg PUBLIC "-//W3C//DTD SVG 1.1//EN"
 "http://www.w3.org/Graphics/SVG/1.1/DTD/svg11.dtd">
<!-- Generated by graphviz version 11.0.0 (20240428.1522)
 -->
<!-- Title: Camera Pages: 1 -->
<svg width="176pt" height="138pt"
 viewBox="0.00 0.00 176.25 137.75" xmlns="http://www.w3.org/2000/svg" xmlns:xlink="http://www.w3.org/1999/xlink">
<g id="graph0" class="graph" transform="scale(1 1) rotate(0) translate(4 133.75)">
<title>Camera</title>
<!-- Node1 -->
<g id="node1" class="node">
<title>Node1</title>
<g id="a_node1"><a xlink:title="A class that represents the camera.">
<polygon fill="#999999" stroke="#666666" points="109.25,-129.75 58.75,-129.75 58.75,-110.5 109.25,-110.5 109.25,-129.75"/>
<text text-anchor="middle" x="84" y="-116.25" font-family="Helvetica,sans-Serif" font-size="10.00">Camera</text>
</a>
</g>
</g>
<!-- Node2 -->
<g id="node2" class="node">
<title>Node2</title>
<g id="a_node2"><a xlink:href="../../d7/d29/class_movable_camera.html" target="_top" xlink:title="A class for the MovableCamera&#39;s.">
<polygon fill="white" stroke="#666666" points="127.62,-74.5 40.38,-74.5 40.38,-55.25 127.62,-55.25 127.62,-74.5"/>
<text text-anchor="middle" x="84" y="-61" font-family="Helvetica,sans-Serif" font-size="10.00">MovableCamera</text>
</a>
</g>
</g>
<!-- Node1&#45;&gt;Node2 -->
<g id="edge1" class="edge">
<title>Node1&#45;&gt;Node2</title>
<path fill="none" stroke="#63b8ff" d="M84,-98.88C84,-90.59 84,-81.42 84,-74.86"/>
<polygon fill="#63b8ff" stroke="#63b8ff" points="80.5,-98.82 84,-108.82 87.5,-98.82 80.5,-98.82"/>
</g>
<!-- Node3 -->
<g id="node3" class="node">
<title>Node3</title>
<g id="a_node3"><a xlink:href="../../d2/d4c/class_editor_camera.html" target="_top" xlink:title="A class for the EditorCamera.">
<polygon fill="white" stroke="#666666" points="76,-19.25 0,-19.25 0,0 76,0 76,-19.25"/>
<text text-anchor="middle" x="38" y="-5.75" font-family="Helvetica,sans-Serif" font-size="10.00">EditorCamera</text>
</a>
</g>
</g>
<!-- Node2&#45;&gt;Node3 -->
<g id="edge2" class="edge">
<title>Node2&#45;&gt;Node3</title>
<path fill="none" stroke="#63b8ff" d="M69,-46.51C61.24,-37.53 52.1,-26.95 45.76,-19.61"/>
<polygon fill="#63b8ff" stroke="#63b8ff" points="66.23,-48.66 75.41,-53.94 71.53,-44.08 66.23,-48.66"/>
</g>
<!-- Node4 -->
<g id="node4" class="node">
<title>Node4</title>
<g id="a_node4"><a xlink:href="../../da/de2/class_ortho_camera.html" target="_top" xlink:title="A class for the OrthoCamera&#39;s.">
<polygon fill="white" stroke="#666666" points="168.25,-19.25 93.75,-19.25 93.75,0 168.25,0 168.25,-19.25"/>
<text text-anchor="middle" x="131" y="-5.75" font-family="Helvetica,sans-Serif" font-size="10.00">OrthoCamera</text>
</a>
</g>
</g>
<!-- Node2&#45;&gt;Node4 -->
<g id="edge3" class="edge">
<title>Node2&#45;&gt;Node4</title>
<path fill="none" stroke="#63b8ff" d="M99.33,-46.51C107.25,-37.53 116.6,-26.95 123.07,-19.61"/>
<polygon fill="#63b8ff" stroke="#63b8ff" points="96.76,-44.13 92.76,-53.95 102,-48.77 96.76,-44.13"/>
</g>
</g>
</svg>
