<?xml version="1.0" encoding="UTF-8" standalone="no"?>
<!DOCTYPE svg PUBLIC "-//W3C//DTD SVG 1.1//EN"
 "http://www.w3.org/Graphics/SVG/1.1/DTD/svg11.dtd">
<!-- Generated by graphviz version 11.0.0 (20240428.1522)
 -->
<!-- Title: Vivid::Vertex Pages: 1 -->
<svg width="224pt" height="116pt"
 viewBox="0.00 0.00 224.25 116.25" xmlns="http://www.w3.org/2000/svg" xmlns:xlink="http://www.w3.org/1999/xlink">
<g id="graph0" class="graph" transform="scale(1 1) rotate(0) translate(4 112.25)">
<title>Vivid::Vertex</title>
<!-- Node1 -->
<g id="node1" class="node">
<title>Node1</title>
<g id="a_node1"><a xlink:title="A struct for the Vertex.">
<polygon fill="#999999" stroke="#666666" points="143.75,-19.25 71.5,-19.25 71.5,0 143.75,0 143.75,-19.25"/>
<text text-anchor="middle" x="107.62" y="-5.75" font-family="Helvetica,sans-Serif" font-size="10.00">Vivid::Vertex</text>
</a>
</g>
</g>
<!-- Node2 -->
<g id="node2" class="node">
<title>Node2</title>
<g id="a_node2"><a xlink:href="../../d4/df7/struct_vivid_1_1_maths_1_1_vec3.html" target="_top" xlink:title="Contains a 3D vector.">
<polygon fill="white" stroke="#666666" points="99.25,-108.25 0,-108.25 0,-89 99.25,-89 99.25,-108.25"/>
<text text-anchor="middle" x="49.62" y="-94.75" font-family="Helvetica,sans-Serif" font-size="10.00">Vivid::Maths::Vec3</text>
</a>
</g>
</g>
<!-- Node2&#45;&gt;Node1 -->
<g id="edge1" class="edge">
<title>Node2&#45;&gt;Node1</title>
<path fill="none" stroke="#9a32cd" stroke-dasharray="5,2" d="M61.99,-79.08C74.17,-60.81 92.26,-33.68 101.58,-19.69"/>
<polygon fill="#9a32cd" stroke="#9a32cd" points="59.09,-77.12 56.45,-87.38 64.91,-81 59.09,-77.12"/>
<text text-anchor="middle" x="106.5" y="-61.5" font-family="Helvetica,sans-Serif" font-size="10.00"> normal</text>
<text text-anchor="middle" x="106.5" y="-50.25" font-family="Helvetica,sans-Serif" font-size="10.00">position</text>
<text text-anchor="middle" x="106.5" y="-39" font-family="Helvetica,sans-Serif" font-size="10.00">tangent</text>
</g>
<!-- Node3 -->
<g id="node3" class="node">
<title>Node3</title>
<g id="a_node3"><a xlink:href="../../db/db4/struct_vivid_1_1_maths_1_1_vec2.html" target="_top" xlink:title="Contains a 2D vector.">
<polygon fill="white" stroke="#666666" points="216.25,-108.25 117,-108.25 117,-89 216.25,-89 216.25,-108.25"/>
<text text-anchor="middle" x="166.62" y="-94.75" font-family="Helvetica,sans-Serif" font-size="10.00">Vivid::Maths::Vec2</text>
</a>
</g>
</g>
<!-- Node3&#45;&gt;Node1 -->
<g id="edge2" class="edge">
<title>Node3&#45;&gt;Node1</title>
<path fill="none" stroke="#9a32cd" stroke-dasharray="5,2" d="M155.37,-79.47C147.75,-67.37 137.34,-51.18 127.62,-37.25 123.39,-31.18 118.39,-24.52 114.45,-19.38"/>
<polygon fill="#9a32cd" stroke="#9a32cd" points="152.19,-80.99 160.46,-87.62 158.13,-77.28 152.19,-80.99"/>
<text text-anchor="middle" x="168.88" y="-50.25" font-family="Helvetica,sans-Serif" font-size="10.00"> texcoord</text>
</g>
</g>
</svg>
