<?xml version="1.0" encoding="UTF-8" standalone="no"?>
<!DOCTYPE svg PUBLIC "-//W3C//DTD SVG 1.1//EN"
 "http://www.w3.org/Graphics/SVG/1.1/DTD/svg11.dtd">
<!-- Generated by graphviz version 11.0.0 (20240428.1522)
 -->
<!-- Title: EditorCamera Pages: 1 -->
<svg width="176pt" height="149pt"
 viewBox="0.00 0.00 175.88 149.00" xmlns="http://www.w3.org/2000/svg" xmlns:xlink="http://www.w3.org/1999/xlink">
<g id="graph0" class="graph" transform="scale(1 1) rotate(0) translate(4 145)">
<title>EditorCamera</title>
<!-- Node1 -->
<g id="node1" class="node">
<title>Node1</title>
<g id="a_node1"><a xlink:title="A class for the EditorCamera.">
<polygon fill="#999999" stroke="#666666" points="109.25,-19.25 33.25,-19.25 33.25,0 109.25,0 109.25,-19.25"/>
<text text-anchor="middle" x="71.25" y="-5.75" font-family="Helvetica,sans-Serif" font-size="10.00">EditorCamera</text>
</a>
</g>
</g>
<!-- Node2 -->
<g id="node2" class="node">
<title>Node2</title>
<g id="a_node2"><a xlink:href="../../d7/d29/class_movable_camera.html" target="_top" xlink:title="A class for the MovableCamera&#39;s.">
<polygon fill="white" stroke="#666666" points="114.88,-74.5 27.62,-74.5 27.62,-55.25 114.88,-55.25 114.88,-74.5"/>
<text text-anchor="middle" x="71.25" y="-61" font-family="Helvetica,sans-Serif" font-size="10.00">MovableCamera</text>
</a>
</g>
</g>
<!-- Node2&#45;&gt;Node1 -->
<g id="edge1" class="edge">
<title>Node2&#45;&gt;Node1</title>
<path fill="none" stroke="#63b8ff" d="M71.25,-43.63C71.25,-35.34 71.25,-26.17 71.25,-19.61"/>
<polygon fill="#63b8ff" stroke="#63b8ff" points="67.75,-43.57 71.25,-53.57 74.75,-43.57 67.75,-43.57"/>
</g>
<!-- Node3 -->
<g id="node3" class="node">
<title>Node3</title>
<g id="a_node3"><a xlink:href="../../da/dbb/class_camera.html" target="_top" xlink:title="A class that represents the camera.">
<polygon fill="white" stroke="#666666" points="50.5,-141 0,-141 0,-121.75 50.5,-121.75 50.5,-141"/>
<text text-anchor="middle" x="25.25" y="-127.5" font-family="Helvetica,sans-Serif" font-size="10.00">Camera</text>
</a>
</g>
</g>
<!-- Node3&#45;&gt;Node2 -->
<g id="edge2" class="edge">
<title>Node3&#45;&gt;Node2</title>
<path fill="none" stroke="#63b8ff" d="M38.26,-112.13C46.98,-99.91 58.06,-84.36 64.91,-74.77"/>
<polygon fill="#63b8ff" stroke="#63b8ff" points="35.48,-110 32.52,-120.17 41.18,-114.06 35.48,-110"/>
</g>
<!-- Node4 -->
<g id="node4" class="node">
<title>Node4</title>
<g id="a_node4"><a xlink:href="../../d4/df7/struct_vivid_1_1_maths_1_1_vec3.html" target="_top" xlink:title="Contains a 3D vector.">
<polygon fill="white" stroke="#666666" points="167.88,-141 68.62,-141 68.62,-121.75 167.88,-121.75 167.88,-141"/>
<text text-anchor="middle" x="118.25" y="-127.5" font-family="Helvetica,sans-Serif" font-size="10.00">Vivid::Maths::Vec3</text>
</a>
</g>
</g>
<!-- Node4&#45;&gt;Node2 -->
<g id="edge3" class="edge">
<title>Node4&#45;&gt;Node2</title>
<path fill="none" stroke="#9a32cd" stroke-dasharray="5,2" d="M104.95,-112.13C96.05,-99.91 84.72,-84.36 77.73,-74.77"/>
<polygon fill="#9a32cd" stroke="#9a32cd" points="102.11,-114.16 110.82,-120.18 107.76,-110.04 102.11,-114.16"/>
<text text-anchor="middle" x="123.12" y="-94.25" font-family="Helvetica,sans-Serif" font-size="10.00"> m_Position</text>
</g>
</g>
</svg>
